<svg width="32" height="32" xmlns="http://www.w3.org/2000/svg">

 <title/>
 <g>
  <title>background</title>
  <rect fill="none" id="canvas_background" height="402" width="582" y="-1" x="-1"/>
 </g>
 <g>
  <title>Layer 1</title>
  <path fill="#2b2b2b" id="svg_1" d="m18,21.875205a5.23,5.23 0 0 1 -4.3,-8.23a1,1 0 0 1 1.64,1.16a3.19,3.19 0 0 0 0.37,4.12a3.23,3.23 0 0 0 4.58,0l6,-6a3.24,3.24 0 0 0 -4.58,-4.58l-2.55,2.55a1,1 0 1 1 -1.42,-1.42l2.55,-2.55a5.25,5.25 0 0 1 7.42,7.42l-6,6a5.24,5.24 0 0 1 -3.71,1.53z" class="cls-1"/>
  <path fill="#052b66" id="svg_2" d="m8,26.74a5.24,5.24 0 0 1 -3.71,-8.95l6,-6a5.21,5.21 0 0 1 3.71,-1.53a5.31,5.31 0 0 1 3.71,1.53a5.22,5.22 0 0 1 0.59,6.7a1,1 0 0 1 -1.64,-1.16a3.19,3.19 0 0 0 -0.37,-4.12a3.27,3.27 0 0 0 -2.29,-1a3.21,3.21 0 0 0 -2.29,1l-6,6a3.24,3.24 0 0 0 4.58,4.58l2.55,-2.55a1,1 0 1 1 1.42,1.42l-2.55,2.55a5.24,5.24 0 0 1 -3.71,1.53z" class="cls-2"/>
 </g>
</svg>